<mxfile host="app.diagrams.net" agent="Mozilla/5.0 (Windows NT 10.0; Win64; x64) AppleWebKit/537.36 (KHTML, like Gecko) Chrome/132.0.0.0 Safari/537.36" version="26.0.6">
  <diagram name="Page-1" id="671RRiFCWpEk_SXeamfu">
    <mxGraphModel dx="954" dy="618" grid="1" gridSize="10" guides="1" tooltips="1" connect="1" arrows="1" fold="1" page="1" pageScale="1" pageWidth="827" pageHeight="1169" math="0" shadow="0">
      <root>
        <mxCell id="0" />
        <mxCell id="1" parent="0" />
        <mxCell id="kYReCTsqhSqgmGwsNXHj-36" value="Utilisateur" style="swimlane;whiteSpace=wrap;html=1;fillColor=#FFFFFF;gradientColor=none;swimlaneLine=1;rounded=0;shadow=0;glass=0;" vertex="1" parent="1">
          <mxGeometry x="40" y="40" width="250" height="130" as="geometry" />
        </mxCell>
        <mxCell id="kYReCTsqhSqgmGwsNXHj-38" value="AUTO_INCREMENT&lt;div&gt;VARCHAR&lt;/div&gt;&lt;div&gt;VARCHAR&lt;/div&gt;&lt;div&gt;VARCHAR&lt;/div&gt;&lt;div&gt;VARCHAR&lt;/div&gt;&lt;div&gt;VARCHAR&lt;/div&gt;" style="text;html=1;align=center;verticalAlign=middle;resizable=0;points=[];autosize=1;strokeColor=none;fillColor=none;" vertex="1" parent="kYReCTsqhSqgmGwsNXHj-36">
          <mxGeometry x="110" y="30" width="130" height="100" as="geometry" />
        </mxCell>
        <mxCell id="kYReCTsqhSqgmGwsNXHj-40" value="id&lt;div&gt;PrÃ©nom&lt;div&gt;Nom&lt;/div&gt;&lt;/div&gt;&lt;div style=&quot;&quot;&gt;Nom d&#39;utilisateur&lt;/div&gt;&lt;div&gt;Adresse mail&lt;/div&gt;&lt;div&gt;Mot de passe&lt;/div&gt;" style="text;html=1;align=left;verticalAlign=middle;resizable=0;points=[];autosize=1;strokeColor=none;fillColor=none;" vertex="1" parent="kYReCTsqhSqgmGwsNXHj-36">
          <mxGeometry x="10" y="30" width="110" height="100" as="geometry" />
        </mxCell>
      </root>
    </mxGraphModel>
  </diagram>
</mxfile>
